<svg xmlns="http://www.w3.org/2000/svg" viewBox="0 0 25 380" shape-rendering="geometricPrecision" fill="#fff">
  <!-- starting point M9.416,43.318 -->
  <rect fill-rule="evenodd" width="25" fill="#00a400" height="380"/>
  <g transform="translate(0, -201)">
    <path d="M4.756,310.969h13.64v-1.96h-5.899v-2.04   c0-3.16-1.681-4.6-3.819-4.6c-2.16,0-3.921,1.359-3.921,4.339V310.969z M6.517,309.009v-2.301c0-1.779,1.08-2.319,2.079-2.319   c1.36,0,2.141,0.94,2.141,2.4v2.22H6.517z"/>
    <path d="M9.416,300.993h8.979v-1.78h-4.699   c-1.54,0-2.761-0.959-2.761-2.179c0-0.421,0.36-1.121,0.881-1.66l-1.54-0.94c-0.7,0.739-1.04,1.42-1.04,2.14   c0,0.84,0.659,1.7,2.24,2.6v0.04H9.416V300.993z"/>
    <path d="M9.236,289.699c0,2.68,1.999,4.739,4.579,4.739   c2.761,0,4.761-1.979,4.761-4.739c0-2.88-1.921-4.86-4.761-4.86C11.156,284.838,9.236,286.878,9.236,289.699z M10.836,289.718   c0-1.78,1.261-3.06,3-3.06c1.94,0,3.141,1.18,3.141,3.06c0,1.72-1.261,2.9-3.161,2.9C12.097,292.619,10.836,291.399,10.836,289.718   z"/>
    <path d="M18.176,281.407c0.28-0.68,0.4-1.22,0.4-1.801   c0-2.66-1.899-4.56-4.6-4.56c-2.96,0-4.561,1.78-4.561,5.06v3.081h13.58v-1.78H18.176z M11.017,281.407v-1.62   c0-1.94,1.08-2.92,2.939-2.92c1.74,0,3.021,1.2,3.021,2.86c0,0.56-0.141,1.14-0.4,1.68H11.017z"/>
    <path d="M9.236,269.066c0,2.68,1.999,4.739,4.579,4.739   c2.761,0,4.761-1.979,4.761-4.739c0-2.88-1.921-4.86-4.761-4.86C11.156,264.206,9.236,266.246,9.236,269.066z M10.836,269.086   c0-1.78,1.261-3.061,3-3.061c1.94,0,3.141,1.18,3.141,3.061c0,1.719-1.261,2.899-3.161,2.899   C12.097,271.986,10.836,270.766,10.836,269.086z"/>
    <path d="M9.977,257.213c-0.5,0.94-0.74,1.801-0.74,2.641   c0,1.8,0.92,2.96,2.458,2.96c2.412,0,3.07-4.2,4.306-4.2c0.638,0,0.977,0.6,1.017,1.32c0,0.72-0.379,1.779-1.177,2.94h1.916   c0.6-1.161,0.82-2.021,0.82-3.12c0-1.7-1.06-2.961-2.637-2.961c-0.916,0-1.534,0.54-2.51,2.021   c-0.916,1.58-1.395,2.181-1.796,2.181c-0.49,0-0.838-0.461-0.838-1.181c0-0.66,0.286-1.601,0.96-2.601H9.977z"/>
  </g>
  <path d="M16.796,67.885c0.301,0.4,0.48,0.76,0.48,0.94   c0,0.22-0.12,0.34-0.46,0.34h-4.62c-2.04,0-2.96,1.44-2.96,3.26c0,1.3,0.399,2.28,1.22,2.98h1.939   c-1.02-0.86-1.479-1.86-1.479-2.84c0-1.08,0.46-1.62,1.58-1.62h0.48l0.56,1.58c0.52,1.44,1.061,3.06,2.84,3.06   c1.16,0,2.2-0.88,2.2-2.2c0-0.82-0.3-1.64-0.92-2.42c0.64-0.16,0.92-0.58,0.92-1.36c0-0.56-0.16-0.9-0.7-1.72H16.796z    M16.576,70.945c0.46,0.48,0.739,1,0.739,1.56c0,0.74-0.52,1.28-1.26,1.28c-1.06,0-1.579-1.32-2.1-2.84H16.576z"
    transform="translate(0, -21)"/>
  <path d="m4.936,43.318 13.76,0 0,1.79 -13.764,0 0,-1.792 z"/>
</svg>
